<?xml version="1.0" encoding="UTF-8"?>
<svg version="1.1" viewBox="0 0 132 31" xmlns="http://www.w3.org/2000/svg" xmlns:xlink="http://www.w3.org/1999/xlink">
<title>Group 7</title>
<desc>Created with Sketch.</desc>
<defs>
<circle id="b" cx="15.412" cy="15.412" r="15.412"/>
<linearGradient id="j" x1="50%" x2="50%" y2="100%">
<stop stop-color="#001F76" offset="0"/>
<stop stop-color="#003FEF" offset="1"/>
</linearGradient>
<linearGradient id="i" x1="50%" x2="50%" y2="100%">
<stop stop-color="#0034C5" offset="0"/>
<stop stop-color="#0038D5" offset="1"/>
</linearGradient>
<linearGradient id="h" x1="50%" x2="50%" y2="100%">
<stop stop-color="#0030B5" offset="0"/>
<stop stop-color="#04f" offset="1"/>
</linearGradient>
<linearGradient id="g" x1="50%" x2="50%" y2="100%">
<stop stop-color="#0643EC" offset="0"/>
<stop stop-color="#003FED" offset="1"/>
</linearGradient>
<linearGradient id="f" x1="50%" x2="50%" y2="100%">
<stop stop-color="#003DE6" offset="0"/>
<stop stop-color="#1B58FF" offset="1"/>
</linearGradient>
<linearGradient id="e" x1="50%" x2="50%" y2="100%">
<stop stop-color="#1654FF" offset="0"/>
<stop stop-color="#1552F9" offset="1"/>
</linearGradient>
<linearGradient id="d" x1="50%" x2="50%" y2="100%">
<stop stop-color="#04f" offset="0"/>
<stop stop-color="#4576FF" offset="1"/>
</linearGradient>
<linearGradient id="k" x1="19.698%" x2="50%" y2="100%">
<stop stop-color="#fff" offset="0"/>
<stop stop-color="#ddd" offset="1"/>
</linearGradient>
<path id="a" d="m15.5 8.5517c-3.7667 0-6.9483 3.1816-6.9483 6.9483s3.1816 6.9483 6.9483 6.9483 6.9483-3.1816 6.9483-6.9483-3.1816-6.9483-6.9483-6.9483zm0 3.4741c1.2 0 2.0845 0.88382 2.0845 2.0845 0 1.2007-0.88452 2.0845-2.0845 2.0845-1.1993 0-2.0845-0.88382-2.0845-2.0845 0-1.2007 0.88521-2.0845 2.0845-2.0845zm-3.5478 6.7899c0.62326-0.91717 1.6627-1.5286 2.853-1.5286h1.3897c1.1909 0 2.2297 0.61145 2.853 1.5286-0.88799 0.95052-2.1477 1.5481-3.5478 1.5481s-2.6598-0.59755-3.5478-1.5481z"/>
<filter id="l" x="-14.4%" y="-7.2%" width="128.8%" height="128.8%">
<feOffset dx="0" dy="1" in="SourceAlpha" result="shadowOffsetOuter1"/>
<feGaussianBlur in="shadowOffsetOuter1" result="shadowBlurOuter1" stdDeviation="0.5"/>
<feColorMatrix in="shadowBlurOuter1" values="0 0 0 0 0   0 0 0 0 0   0 0 0 0 0  0 0 0 0.247596154 0"/>
</filter>
</defs>
<g fill="none" fill-rule="evenodd">
<g transform="translate(-474 -20)">
<g transform="translate(474 20)">
<mask id="c" fill="white">
<use xlink:href="#b"/>
</mask>
<use fill="#D8D8D8" xlink:href="#b"/>
<g mask="url(#c)">
<g transform="translate(38.47 9.2761) rotate(-15) translate(-40.5 -16)">
<rect width="11.591" height="31.843" fill="url(#j)"/>
<rect x="11.463" width="11.591" height="31.843" fill="url(#i)"/>
<rect x="22.927" width="11.591" height="31.843" fill="url(#h)"/>
<rect x="34.263" width="11.591" height="31.843" fill="url(#g)"/>
<rect x="45.726" width="11.591" height="31.843" fill="url(#f)"/>
<rect x="57.189" width="11.591" height="31.843" fill="url(#e)"/>
<rect x="68.653" width="11.591" height="31.843" fill="url(#d)"/>
</g>
</g>
<g fill-rule="nonzero">
<use fill="black" filter="url(#l)" xlink:href="#a"/>
<use fill="url(#k)" xlink:href="#a"/>
</g>
<path d="m46.422 15.835 0.89116-2.4105h4.5873l0.89116 2.4105h2.9511l-4.8649-12.053h-2.542l-4.8649 12.053h2.9511zm4.5435-4.821h-2.7173l1.344-3.5062h0.029218l1.344 3.5062zm12.52 5.0402c2.615 0 3.9591-1.1103 3.9591-1.1103l-1.1687-2.3375s-0.96421 0.74507-2.3667 0.74507c-2.7611 0-3.9737-1.9284-3.9737-3.55 0-1.607 1.2126-3.5354 3.9737-3.5354 1.4025 0 2.3667 0.74507 2.3667 0.74507l1.1687-2.3375-0.0055273-0.0044563c-0.095775-0.076265-1.4354-1.1058-3.9536-1.1058-3.4186 0-6.5303 2.805-6.5303 6.2673 0 3.4478 3.1264 6.2235 6.5303 6.2235zm12.754 0c2.615 0 3.9591-1.1103 3.9591-1.1103l-1.1687-2.3375s-0.96421 0.74507-2.3667 0.74507c-2.7611 0-3.9737-1.9284-3.9737-3.55 0-1.607 1.2126-3.5354 3.9737-3.5354 1.4025 0 2.3667 0.74507 2.3667 0.74507l1.1687-2.3375-0.0055273-0.0044563c-0.095775-0.076265-1.4354-1.1058-3.9536-1.1058-3.4186 0-6.5303 2.805-6.5303 6.2673 0 3.4478 3.1264 6.2235 6.5303 6.2235zm12.301 0c3.4624 0 6.0628-2.7319 6.0628-6.2527 0-3.5208-2.7173-6.2381-6.0628-6.2381-3.3163 0-6.0774 2.7173-6.0774 6.2381 0 3.5208 2.5128 6.2527 6.0774 6.2527zm0-2.6589c-2.2498 0-3.1118-1.7969-3.1118-3.5939 0-1.7969 0.99343-3.5939 3.1118-3.5939 2.1329 0 3.0971 1.7969 3.0971 3.5939 0 1.7969-0.90577 3.5939-3.0971 3.5939zm13.587 2.6589c3.0679 0 4.7042-1.5194 4.7042-4.4996v-7.7721h-2.7465v6.9686c0 2.0161-0.61359 2.6004-1.9576 2.6004s-1.9576-0.58437-1.9576-2.6004v-6.9686h-2.7465v7.7721c0 2.9803 1.6362 4.4996 4.7042 4.4996zm10.811-0.21914v-7.4799h0.029218l4.7918 7.4799h2.7465v-12.053h-2.7465v7.4799h-0.029218l-4.7918-7.4799h-2.7465v12.053h2.7465zm15.223 0v-9.6421h2.8634v-2.4105h-8.4733v2.4105h2.8634v9.6421h2.7465zm-82.73 11.402 0.54339-1.4698h2.7971l0.54339 1.4698h1.7994l-2.9664-7.3491h-1.55l-2.9664 7.3491h1.7994zm2.7704-2.9397h-1.6569l0.81954-2.1379h0.017816l0.81954 2.1379zm7.3214 2.9397v-2.7259h1.0066c1.4342 0 2.5121-0.84626 2.5121-2.3606 0-1.5233-1.0779-2.2626-2.5121-2.2626h-2.6813v7.3491h1.6747zm0.47213-4.0621h-0.47213v-1.9509h0.47213c0.6592 0 1.2828 0.2227 1.2828 0.97989 0 0.74828-0.62356 0.97098-1.2828 0.97098zm7.9094 4.0621v-2.7259h1.0066c1.4342 0 2.5121-0.84626 2.5121-2.3606 0-1.5233-1.0779-2.2626-2.5121-2.2626h-2.6813v7.3491h1.6747zm0.47213-4.0621h-0.47213v-1.9509h0.47213c0.6592 0 1.2828 0.2227 1.2828 0.97989 0 0.74828-0.62356 0.97098-1.2828 0.97098zm10.439 4.0621v-1.4698h-2.5299v-5.8793h-1.6747v7.3491h4.2046zm4.9519 0v-7.3491h-1.6747v7.3491h1.6747zm6.8849 0.13362c1.5945 0 2.4141-0.67701 2.4141-0.67701l-0.71264-1.4253s-0.58793 0.45431-1.4431 0.45431c-1.6836 0-2.423-1.1759-2.423-2.1647 0-0.97989 0.73937-2.1557 2.423-2.1557 0.85517 0 1.4431 0.45431 1.4431 0.45431l0.71264-1.4253s-0.81954-0.67701-2.4141-0.67701c-2.0845 0-3.9819 1.7103-3.9819 3.8216 0 2.1023 1.9063 3.7948 3.9819 3.7948zm6.5197-0.13362 0.54339-1.4698h2.7971l0.54339 1.4698h1.7994l-2.9664-7.3491h-1.55l-2.9664 7.3491h1.7994zm2.7704-2.9397h-1.6569l0.81954-2.1379h0.017816l0.81954 2.1379zm8.1766 2.9397v-5.8793h1.746v-1.4698h-5.1667v1.4698h1.746v5.8793h1.6747zm6.4752 0v-7.3491h-1.6747v7.3491h1.6747zm6.8938 0.13362c2.1112 0 3.6968-1.6658 3.6968-3.8126s-1.6569-3.8037-3.6968-3.8037c-2.0221 0-3.7057 1.6569-3.7057 3.8037s1.5322 3.8126 3.7057 3.8126zm0-1.6213c-1.3718 0-1.8974-1.0957-1.8974-2.1914 0-1.0957 0.60575-2.1914 1.8974-2.1914 1.3006 0 1.8885 1.0957 1.8885 2.1914 0 1.0957-0.5523 2.1914-1.8885 2.1914zm8.5596 1.4876v-4.5609h0.017816l2.9218 4.5609h1.6747v-7.3491h-1.6747v4.5609h-0.017817l-2.9218-4.5609h-1.6747v7.3491h1.6747z" fill="#333" fill-rule="nonzero"/>
</g>
</g>
</g>
</svg>
